REM DIRINDEX 1\2,1\3\7,1\3\8,1\4\9,1\4\10,1\4\11,1\5\12,1\5\13,1\5\14,1\6\15,1\6\16,1\6\17
REM DIRNAME "folder01","folder02","folder03","folder04","folder05","folder06","folder07","folder08","folder09","folder10","folder11","folder12","folder13","folder14","folder15","folder16","folder17"
TITLE ""
FILE "2Q_t_0871-0888.mp3" MP3
  TRACK 01 AUDIO
    TITLE "7:cjc174_3518"
    INDEX 01 00:00:00
  TRACK 02 AUDIO
    TITLE "0:"
    INDEX 01 00:01:18
  TRACK 03 AUDIO
    TITLE "8:cjc174_3519"
    INDEX 01 00:01:67
  TRACK 04 AUDIO
    TITLE "0:"
    INDEX 01 00:03:07
  TRACK 05 AUDIO
    TITLE "7:cjc174_3520"
    INDEX 01 00:03:52
  TRACK 06 AUDIO
    TITLE "0:"
    INDEX 01 00:04:47
  TRACK 07 AUDIO
    TITLE "8:cjc174_3521"
    INDEX 01 00:05:31
  TRACK 08 AUDIO
    TITLE "0:"
    INDEX 01 00:09:07
  TRACK 09 AUDIO
    TITLE "7:cjc174_3522"
    INDEX 01 00:09:52
  TRACK 10 AUDIO
    TITLE "0:"
    INDEX 01 00:11:06
  TRACK 11 AUDIO
    TITLE "8:cjc174_3523"
    INDEX 01 00:11:51
  TRACK 12 AUDIO
    TITLE "0:"
    INDEX 01 00:13:09
  TRACK 13 AUDIO
    TITLE "7:cjc174_3524"
    INDEX 01 00:13:54
  TRACK 14 AUDIO
    TITLE "0:"
    INDEX 01 00:14:63
  TRACK 15 AUDIO
    TITLE "8:cjc174_3525"
    INDEX 01 00:15:39
  TRACK 16 AUDIO
    TITLE "0:"
    INDEX 01 00:16:50
  TRACK 17 AUDIO
    TITLE "7:cjc174_3526"
    INDEX 01 00:17:22
  TRACK 18 AUDIO
    TITLE "0:"
    INDEX 01 00:18:26
  TRACK 19 AUDIO
    TITLE "8:cjc174_3527"
    INDEX 01 00:18:75
  TRACK 20 AUDIO
    TITLE "0:"
    INDEX 01 00:20:15
  TRACK 21 AUDIO
    TITLE "7:cjc174_3528"
    INDEX 01 00:20:60
  TRACK 22 AUDIO
    TITLE "0:"
    INDEX 01 00:22:22
  TRACK 23 AUDIO
    TITLE "8:cjc174_3529"
    INDEX 01 00:22:69
  TRACK 24 AUDIO
    TITLE "0:"
    INDEX 01 00:24:68
  TRACK 25 AUDIO
    TITLE "7:cjc174_3530"
    INDEX 01 00:25:38
  TRACK 26 AUDIO
    TITLE "0:"
    INDEX 01 00:26:47
  TRACK 27 AUDIO
    TITLE "8:cjc174_3531"
    INDEX 01 00:27:21
  TRACK 28 AUDIO
    TITLE "0:"
    INDEX 01 00:29:59
  TRACK 29 AUDIO
    TITLE "7:cjc174_3532"
    INDEX 01 00:30:27
  TRACK 30 AUDIO
    TITLE "0:"
    INDEX 01 00:31:38
  TRACK 31 AUDIO
    TITLE "8:cjc174_3533"
    INDEX 01 00:32:10
  TRACK 32 AUDIO
    TITLE "0:"
    INDEX 01 00:33:16
  TRACK 33 AUDIO
    TITLE "7:cjc174_3534"
    INDEX 01 00:33:59
  TRACK 34 AUDIO
    TITLE "0:"
    INDEX 01 00:34:66
  TRACK 35 AUDIO
    TITLE "8:cjc174_3535"
    INDEX 01 00:35:40
  TRACK 36 AUDIO
    TITLE "0:"
    INDEX 01 00:36:30
  TRACK 37 AUDIO
    TITLE "7:cjc174_3536"
    INDEX 01 00:36:75
  TRACK 38 AUDIO
    TITLE "0:"
    INDEX 01 00:37:57
  TRACK 39 AUDIO
    TITLE "8:cjc174_3537"
    INDEX 01 00:38:38
  TRACK 40 AUDIO
    TITLE "0:"
    INDEX 01 00:39:44
  TRACK 41 AUDIO
    TITLE "7:cjc174_3538"
    INDEX 01 00:40:14
  TRACK 42 AUDIO
    TITLE "0:"
    INDEX 01 00:41:39
  TRACK 43 AUDIO
    TITLE "8:cjc174_3539"
    INDEX 01 00:42:15
  TRACK 44 AUDIO
    TITLE "0:"
    INDEX 01 00:43:28
  TRACK 45 AUDIO
    TITLE "7:cjc174_3540"
    INDEX 01 00:43:73
  TRACK 46 AUDIO
    TITLE "0:"
    INDEX 01 00:45:17
  TRACK 47 AUDIO
    TITLE "8:cjc174_3541"
    INDEX 01 00:45:62
  TRACK 48 AUDIO
    TITLE "0:"
    INDEX 01 00:48:72
  TRACK 49 AUDIO
    TITLE "7:cjc174_3542"
    INDEX 01 00:49:40
  TRACK 50 AUDIO
    TITLE "0:"
    INDEX 01 00:50:55
  TRACK 51 AUDIO
    TITLE "8:cjc174_3543"
    INDEX 01 00:51:27
  TRACK 52 AUDIO
    TITLE "0:"
    INDEX 01 00:52:42
  TRACK 53 AUDIO
    TITLE "7:cjc174_3544"
    INDEX 01 00:53:12
  TRACK 54 AUDIO
    TITLE "0:"
    INDEX 01 00:54:24
  TRACK 55 AUDIO
    TITLE "8:cjc174_3545"
    INDEX 01 00:55:03
  TRACK 56 AUDIO
    TITLE "0:"
    INDEX 01 00:56:70
  TRACK 57 AUDIO
    TITLE "7:cjc174_3546"
    INDEX 01 00:57:38
  TRACK 58 AUDIO
    TITLE "0:"
    INDEX 01 00:58:63
  TRACK 59 AUDIO
    TITLE "8:cjc174_3547"
    INDEX 01 00:59:39
  TRACK 60 AUDIO
    TITLE "0:"
    INDEX 01 01:00:63
  TRACK 61 AUDIO
    TITLE "7:cjc174_3548"
    INDEX 01 01:01:35
  TRACK 62 AUDIO
    TITLE "0:"
    INDEX 01 01:02:49
  TRACK 63 AUDIO
    TITLE "8:cjc174_3549"
    INDEX 01 01:03:19
  TRACK 64 AUDIO
    TITLE "0:"
    INDEX 01 01:06:50
  TRACK 65 AUDIO
    TITLE "7:cjc174_3550"
    INDEX 01 01:07:18
  TRACK 66 AUDIO
    TITLE "0:"
    INDEX 01 01:08:49
  TRACK 67 AUDIO
    TITLE "8:cjc174_3551"
    INDEX 01 01:09:25
  TRACK 68 AUDIO
    TITLE "0:"
    INDEX 01 01:10:62
  TRACK 69 AUDIO
    TITLE "7:cjc174_3552"
    INDEX 01 01:11:34
  TRACK 70 AUDIO
    TITLE "0:"
    INDEX 01 01:12:49
  TRACK 71 AUDIO
    TITLE "8:cjc174_3553"
    INDEX 01 01:13:23
  TRACK 72 AUDIO
    TITLE "0:"
    INDEX 01 01:14:28
